<svg width="714" height="1247" viewBox="0 0 714 1247" fill="none" xmlns="http://www.w3.org/2000/svg">
<path fill-rule="evenodd" clip-rule="evenodd" d="M284.892 1187.05C284.892 1214.17 314.29 1231.09 337.739 1217.46L504.089 1120.8C525.452 1108.38 538.596 1085.54 538.596 1060.84L538.596 859.269L483.182 891.471C459.066 905.485 428.832 888.086 428.832 860.193L428.832 703.793L284.892 787.438L284.892 1187.05ZM285.207 786.098L428.832 702.636L428.832 461.037L285.207 544.499L285.207 786.098ZM285.207 543.342L429.148 459.697L429.148 60.0827C429.148 32.9613 399.75 16.0435 376.3 29.6702L209.951 126.337C188.588 138.751 175.443 161.592 175.443 186.3L175.443 387.865L230.857 355.664C254.973 341.65 285.207 359.049 285.207 386.941L285.207 543.342ZM175.443 389.022L231.359 356.529C254.809 342.902 284.207 359.82 284.207 386.941L284.207 543.923L228.291 576.416C204.841 590.043 175.443 573.125 175.443 546.004L175.443 389.022ZM174.443 389.603L174.443 546.004C174.443 573.896 204.677 591.295 228.793 577.281L284.207 545.08L284.207 786.556L83.3499 903.275C59.9003 916.902 30.5024 899.984 30.5023 872.862L30.5023 513.158C30.5023 488.451 43.6471 465.61 65.0094 453.196L174.443 389.603ZM174.443 388.446L174.443 186.3C174.443 161.236 187.778 138.065 209.448 125.472L375.798 28.8056C399.914 14.7914 430.148 32.1902 430.148 60.0827L430.148 459.239L630.187 342.995C654.303 328.981 684.537 346.38 684.537 374.272L684.537 733.976C684.537 759.04 671.203 782.211 649.532 794.804L539.596 858.688L539.596 1060.84C539.596 1085.9 526.262 1109.07 504.592 1121.66L338.242 1218.33C314.125 1232.34 283.892 1214.94 283.892 1187.05L283.892 787.896L83.8523 904.14C59.7361 918.154 29.5024 900.755 29.5023 872.862L29.5023 513.158C29.5023 488.095 42.8366 464.924 64.507 452.331L174.443 388.446ZM539.596 857.532L649.03 793.939C670.392 781.525 683.537 758.684 683.537 733.976L683.537 374.272C683.537 347.151 654.139 330.233 630.689 343.86L429.832 460.579L429.832 702.055L485.246 669.854C509.363 655.84 539.596 673.239 539.596 701.131L539.596 857.532ZM429.832 703.212L429.832 860.193C429.832 887.315 459.23 904.233 482.68 890.606L538.596 858.113L538.596 701.131C538.596 674.01 509.198 657.092 485.749 670.719L429.832 703.212Z" fill="#1E2027"/>
</svg>
